<svg width="30" height="30" viewBox="0 0 30 30" fill="none" xmlns="http://www.w3.org/2000/svg">
<path d="M3 7C3 6.44772 3.44772 6 4 6H26C26.5523 6 27 6.44772 27 7V19C27 19.5523 26.5523 20 26 20H4C3.44772 20 3 19.5523 3 19V7Z" fill="#37352F"/>
<path fill-rule="evenodd" clip-rule="evenodd" d="M4 23C3.44772 23 3 23.4477 3 24C3 24.5523 3.44771 25 4 25H13C13.5523 25 14 24.5523 14 24C14 23.4477 13.5523 23 13 23H4Z" fill="#37352F"/>
<path fill-rule="evenodd" clip-rule="evenodd" d="M17 23C16.4477 23 16 23.4477 16 24C16 24.5523 16.4477 25 17 25H26C26.5523 25 27 24.5523 27 24C27 23.4477 26.5523 23 26 23H17Z" fill="#37352F"/>
</svg>
