<svg width="30" height="30" viewBox="0 0 30 30" fill="none" xmlns="http://www.w3.org/2000/svg">
<path d="M3 4C3 3.44772 3.44772 3 4 3H26C26.5523 3 27 3.44772 27 4V16C27 16.5523 26.5523 17 26 17H4C3.44772 17 3 16.5523 3 16V4Z" />
<path fill-rule="evenodd" clip-rule="evenodd" d="M5 21V25H12V21H5ZM4 19C3.44772 19 3 19.4477 3 20V26C3 26.5523 3.44771 27 4 27H13C13.5523 27 14 26.5523 14 26V20C14 19.4477 13.5523 19 13 19H4Z" />
<path fill-rule="evenodd" clip-rule="evenodd" d="M18 21V25H25V21H18ZM17 19C16.4477 19 16 19.4477 16 20V26C16 26.5523 16.4477 27 17 27H26C26.5523 27 27 26.5523 27 26V20C27 19.4477 26.5523 19 26 19H17Z" />
</svg>
