<svg width="30" height="30" viewBox="0 0 30 30" fill="none" xmlns="http://www.w3.org/2000/svg">
<path fill-rule="evenodd" clip-rule="evenodd" d="M18 6V12H26V6H18ZM17 4C16.4477 4 16 4.44772 16 5V13C16 13.5523 16.4477 14 17 14H27C27.5523 14 28 13.5523 28 13V5C28 4.44772 27.5523 4 27 4H17Z" fill="#37352F"/>
<path fill-rule="evenodd" clip-rule="evenodd" d="M4 6V12H12V6H4ZM3 4C2.44772 4 2 4.44772 2 5V13C2 13.5523 2.44772 14 3 14H13C13.5523 14 14 13.5523 14 13V5C14 4.44772 13.5523 4 13 4H3Z" fill="#37352F"/>
<path fill-rule="evenodd" clip-rule="evenodd" d="M18 18V24H26V18H18ZM17 16C16.4477 16 16 16.4477 16 17V25C16 25.5523 16.4477 26 17 26H27C27.5523 26 28 25.5523 28 25V17C28 16.4477 27.5523 16 27 16H17Z" fill="#37352F"/>
<path fill-rule="evenodd" clip-rule="evenodd" d="M4 18V24H12V18H4ZM3 16C2.44772 16 2 16.4477 2 17V25C2 25.5523 2.44772 26 3 26H13C13.5523 26 14 25.5523 14 25V17C14 16.4477 13.5523 16 13 16H3Z" fill="#37352F"/>
</svg>
